# Blender v2.91.2 OBJ File: ''
# www.blender.org
o Cube_Cube.001
v 1.722019 -0.347562 -1.000000
v 0.700530 0.347562 -0.398974
v 1.722019 -0.347562 1.000000
v 0.700530 0.347562 0.398974
v -1.722019 -0.347562 -1.000000
v -0.700530 0.347562 -0.398974
v -1.722019 -0.347562 1.000000
v -0.700530 0.347562 0.398974
v 1.722019 0.347562 -1.000000
v 1.722019 0.347562 1.000000
v -1.722019 0.347562 1.000000
v -1.722019 0.347562 -1.000000
v 0.700530 5.768309 -0.398974
v 0.700530 6.856708 0.398974
v -0.700530 6.856708 0.398974
v -0.700530 5.768309 -0.398974
v 2.754295 4.336472 -1.448710
v 2.754295 8.288546 1.448710
v -2.754295 8.288546 1.448710
v -2.754295 4.336472 -1.448710
v 2.754295 4.601489 -1.810193
v 2.754295 8.553563 1.087227
v -2.754295 8.553563 1.087227
v -2.754295 4.601489 -1.810193
vt 0.188434 0.750966
vt 0.130593 0.750966
vt 0.130593 0.584545
vt 0.188434 0.584545
vt 0.037297 0.584545
vt 0.083945 0.584545
vt 0.083945 0.871125
vt 0.037297 0.871125
vt 0.246276 0.750966
vt 0.188434 0.750966
vt 0.188434 0.584545
vt 0.246276 0.584545
vt 0.083945 0.584545
vt 0.130593 0.584545
vt 0.130593 0.871125
vt 0.083945 0.871125
vt 0.574954 0.744951
vt 0.574954 0.458372
vt 0.709169 0.458372
vt 0.709169 0.744951
vt 0.998931 0.541628
vt 0.932533 0.541628
vt 0.932533 0.090566
vt 0.998931 0.000000
vt 0.803051 0.543370
vt 0.749503 0.543370
vt 0.709169 0.458372
vt 0.843384 0.458372
vt 0.749503 0.659953
vt 0.709169 0.744951
vt 0.803051 0.659953
vt 0.843384 0.744951
vt 0.287477 0.324514
vt 0.170895 0.324514
vt 0.000000 0.176781
vt 0.458372 0.176781
vt 0.458372 0.458372
vt 0.574954 0.458372
vt 0.574954 0.822144
vt 0.458372 0.822144
vt 0.170895 0.000000
vt 0.287477 0.000000
vt 0.287477 0.436812
vt 0.170895 0.436812
vt 0.866136 0.000000
vt 0.932533 0.000000
vt 0.932533 0.541628
vt 0.866136 0.451062
vt 0.000000 0.992310
vt 0.000000 0.584546
vt 0.037297 0.584546
vt 0.037297 0.992310
vt 0.458372 0.584545
vt 0.891439 0.433068
vt 0.433068 0.433068
vt 0.433068 0.025304
vt 0.891439 0.025304
vt 0.940729 0.949392
vt 0.940729 0.541628
vt 0.978026 0.541628
vt 0.978026 0.949392
vt 0.940729 1.000000
vt 0.903432 1.000000
vt 0.903432 0.541628
vt 0.903432 0.541628
vt 0.903432 1.000000
vt 0.866136 1.000000
vt 0.866136 0.541628
vn 1.0000 0.0000 0.0000
vn 0.0000 0.0000 1.0000
vn -1.0000 0.0000 0.0000
vn 0.0000 0.0000 -1.0000
vn 0.0000 -1.0000 0.0000
vn 0.0000 1.0000 0.0000
vn 0.0000 -0.5913 0.8065
vn 0.0000 0.5913 -0.8065
vn 0.0000 -0.8065 -0.5913
vn 0.0000 0.8065 0.5913
s off
f 1/1/1 9/2/1 10/3/1 3/4/1
f 3/5/2 10/6/2 11/7/2 7/8/2
f 7/9/3 11/10/3 12/11/3 5/12/3
f 5/13/4 12/14/4 9/15/4 1/16/4
f 3/17/5 7/18/5 5/19/5 1/20/5
f 4/21/1 2/22/1 13/23/1 14/24/1
f 2/25/6 4/26/6 10/27/6 9/28/6
f 4/26/6 8/29/6 11/30/6 10/27/6
f 8/29/6 6/31/6 12/32/6 11/30/6
f 6/31/6 2/25/6 9/28/6 12/32/6
f 13/33/7 16/34/7 20/35/7 17/36/7
f 2/37/4 6/38/4 16/39/4 13/40/4
f 8/41/2 4/42/2 14/43/2 15/44/2
f 6/45/3 8/46/3 15/47/3 16/48/3
f 20/49/3 19/50/3 23/51/3 24/52/3
f 15/44/7 14/43/7 18/53/7 19/50/7
f 16/34/7 15/44/7 19/50/7 20/35/7
f 14/43/7 13/33/7 17/36/7 18/53/7
f 23/54/8 22/55/8 21/56/8 24/57/8
f 18/58/1 17/59/1 21/60/1 22/61/1
f 17/59/9 20/62/9 24/63/9 21/64/9
f 19/65/10 18/66/10 22/67/10 23/68/10
